<?xml version="1.0" standalone="no"?>
<!DOCTYPE svg PUBLIC "-//W3C//DTD SVG 20010904//EN"
 "http://www.w3.org/TR/2001/REC-SVG-20010904/DTD/svg10.dtd">
<svg version="1.0" xmlns="http://www.w3.org/2000/svg"
 width="50.000000pt" height="50.000000pt" viewBox="0 0 50.000000 50.000000"
 preserveAspectRatio="xMidYMid meet">

<g transform="translate(0.000000,50.000000) scale(0.100000,-0.100000)"
fill="#000000" stroke="none">
<path d="M301 370 c-40 -58 -61 -98 -59 -112 3 -25 64 -70 87 -66 14 3 150
239 151 261 0 4 -26 7 -58 7 l-59 0 -62 -90z"/>
<path d="M167 234 c-14 -14 -35 -54 -47 -89 -23 -71 -50 -111 -80 -120 -11 -4
-20 -11 -20 -17 0 -13 145 -4 202 12 49 14 93 59 105 109 10 38 9 40 -15 46
-36 9 -80 42 -87 65 -9 27 -27 25 -58 -6z"/>
</g>
</svg>
